<?xml version="1.0" standalone="no"?>
<!DOCTYPE svg PUBLIC "-//W3C//DTD SVG 1.1//EN" "http://www.w3.org/Graphics/SVG/1.1/DTD/svg11.dtd" >
<!--
2013-9-30: Created.
-->
<svg>
<metadata>
Created by iconfont
</metadata>
<defs>

<font id="iconfont" horiz-adv-x="1024" >
  <font-face
    font-family="iconfont"
    font-weight="500"
    font-stretch="normal"
    units-per-em="1024"
    ascent="896"
    descent="-128"
  />
    <missing-glyph />
    
    <glyph glyph-name="address" unicode="&#58881;" d="M512 784c-176.72 0-320-135.52-320-302.72C192 314.12 512-16 512-16s320 330.12 320 497.28C832 648.48 688.72 784 512 784z m0-453.32c-84.52 0-153.04 65.64-153.04 146.64S427.48 624 512 624s153.04-65.68 153.04-146.68S596.52 330.67999999999995 512 330.67999999999995z"  horiz-adv-x="1024" />

    
    <glyph glyph-name="close" unicode="&#58882;" d="M189.671 658.203l45.656 45.657 593.528-593.528-45.656-45.656-593.528 593.527zM235.327 64.67600000000004l-45.655 45.656L783.199 703.86l45.656-45.656-593.528-593.528z"  horiz-adv-x="1024" />

    
    <glyph glyph-name="arrow" unicode="&#58883;" d="M371.978 693.49l317.909-289.736c5.56-5.508 7.944-12.87 7.573-20.125 0.371-7.256-2.013-14.563-7.573-20.124L371.978 73.71699999999998c-10.433-10.38-27.327-10.38-37.813 0-10.433 10.38-10.433 27.221 0 37.6l298.792 272.259-298.792 272.258c-10.433 10.382-10.433 27.222 0 37.602 10.434 10.433 27.327 10.433 37.813 0.053z"  horiz-adv-x="1024" />

    
    <glyph glyph-name="del" unicode="&#58884;" d="M208.19283676 575.2851905800001V620.2927436800001h158.77166748C370.18727493 695.21289253 433.74816132 755.31926536 512.00772476 755.31926536c78.24952126 0 141.81118012-60.10637283 145.03317833-135.0257492H815.80716324v-45.00832558H208.19283676zM512.00772476 706.35431672c-50.33763886 0-91.2479782-38.14950943-94.40972327-86.06157304h188.80863188C603.24720573 668.20557976 562.34304619 706.35431672 512.00772476 706.35431672z m-56.26948357-243.59032631v-315.059824h-45.00832557V462.76399041h45.00832557z m157.53029824 0v-315.059824h-45.00832558V462.76399041h45.00832558zM298.20948792 102.69584083999996c0-15.65114021 28.82108689-45.00600815 45.00832558-45.00600816h337.564373c16.18414879 0 45.0075531 29.35409546 45.0075531 45.00600816v427.58102417h45.00832558v-427.58102417c0-42.65227317-45.90826035-90.0151062-90.01665115-90.0151062h-337.56437301c-44.10761833 0-90.01665115 47.36283303-90.01665116 90.0151062v427.58102417h45.00909806v-427.58102417z"  horiz-adv-x="1024" />

    
    <glyph glyph-name="crumb" unicode="&#58885;" d="M193.21266666 672.7h87.632v-87.307h-87.632V672.7z m178.005 0h469.255v-87.307H371.21766666V672.7zM193.21166666 432.848h87.633v-87.308h-87.632v87.308z m178.006 0h469.255v-87.308H371.21766666v87.308z m-178.006-224.71h87.633v-87.147h-87.632v87.145z m178.006 0h469.255v-87.147H371.21766666v87.145z"  horiz-adv-x="1024" />

    
    <glyph glyph-name="email" unicode="&#58886;" d="M968.32766976 36.38571166999998h-617.01536178C271.36102166 36.38571166999998 207.05237832 98.95628356999998 207.05237832 177.16949843999998V589.09243012C207.05237832 669.04371643 271.36102166 731.61428833 351.31230798 731.61428833h617.01536179c78.21321488 0 142.52185822-62.5705719 142.52185821-142.52185822v-411.92293167c0-78.21321488-64.30864334-140.78378678-142.52185821-140.78378677zM351.31230798 663.8295021c-41.7137146 0-74.73707199-33.02335739-74.737072-74.73707199v-411.92293167c0-41.7137146 33.02335739-74.73707199 74.737072-74.73707199h617.01536179c41.7137146 0 74.73707199 33.02335739 74.73707199 74.73707199V589.09243012c0 41.7137146-33.02335739 74.73707199-74.73707199 74.73707198h-617.01536179zM658.95095315 276.23957062c-26.07107163 0-50.40407181 10.42842865-69.52285767 27.80914306L255.71837868 634.2822876l53.8802147 52.14214326 333.7097168-330.23357393c8.6903572-8.6903572 22.59492874-8.6903572 31.28528594 0L1010.04138437 688.16250229l53.88021468-52.14214325L728.47381082 304.04871368c-19.11878586-19.11878586-43.45178603-27.80914307-69.52285767-27.80914306z"  horiz-adv-x="1331" />

    
    <glyph glyph-name="form" unicode="&#58887;" d="M823.5046554 47.067184920000045H298.42980394C227.63471914 47.067184920000045 169.81718493 104.88405079999995 169.81718493 175.68047227V700.7546554C169.81718493 717.27366444 182.79607217 731.4328150700001 199.31574955 731.4328150700001S229.99324093 718.45392782 231.17417263 700.7546554v-526.25377819c0-37.75840333 30.67815967-67.25696796 67.25629964-67.25696796h4.71971686V496.62456139c0 37.75840333 25.95911114 68.43656301 56.63727084 68.43656302h10.61969712c31.85842306 0 56.63727083-30.67815967 56.63727083-68.43656302v-388.20038877h64.8964412V644.11738455c0 37.75773499 25.95911114 68.43656301 56.63727082 68.43656302h9.43943375c31.8590914 0 56.63727083-30.67882802 56.63727083-68.43656302v-535.69321193h64.89644119V423.4682815c0 37.75840333 25.95911114 68.43656301 56.63727084 68.43656302h9.43943374c31.8590914 0 56.63727083-30.67815967 56.63727083-68.43656302v-315.04410888h21.23939428c16.51900907 0 30.67815967-14.15915063 30.67815967-30.67882802S840.02366445 47.067184920000045 823.5046554 47.067184920000045z"  horiz-adv-x="1024" />

    
    <glyph glyph-name="eye" unicode="&#58888;" d="M511.989 542.104c122.594 0 228.113-52.459 277.498-156.254h48.125c-52.155 128.727-178.19 200.16-325.62 200.16-147.41 0-273.441-71.437-325.596-200.16h48.12c49.379 103.791 154.901 156.254 277.473 156.254z m0-316.186c-122.572 0-228.094 56.149-277.476 159.932h-48.121c52.151-128.741 178.182-203.86 325.597-203.86 147.433 0 273.464 75.122 325.619 203.86h-48.125C740.102 282.067 634.586 225.918 511.99 225.918z m-117.11 159.925c0-64.7 52.433-117.132 117.117-117.132 64.692 0 117.125 52.433 117.125 117.132 0 64.695-52.433 117.128-117.125 117.128-64.687 0-117.117-52.433-117.117-117.128z m190.333 0c0-40.438-32.785-73.224-73.216-73.224-40.427 0-73.186 32.786-73.186 73.224 0 40.434 32.763 73.22 73.186 73.22 40.431 0 73.216-32.786 73.216-73.22z"  horiz-adv-x="1024" />

    
    <glyph glyph-name="reduce" unicode="&#58889;" d="M850.19104433 91.36018718000003l-197.12626934 197.12771774h147.67813683a32.20067024 32.20067024 0 0 1 32.19994604 32.19994604c0 17.78843701-14.41585421 32.2079122-32.20067024 32.2079122h-225.42062401a32.20718801 32.20718801 0 0 1-32.20646383-32.2079122v-225.41917563c0-17.78481603 14.41875101-32.20139444 32.20718803-32.20139444a32.20067024 32.20067024 0 0 1 32.20067024 32.20067025v147.67813682l197.12771773-197.12699354a32.20356702 32.20356702 0 0 1 45.54036855 45.54109276zM447.80722809 705.01962268a32.10290373 32.10290373 0 0 1-32.09928274-32.10362792v-147.21899629L219.19724298 722.21204603a32.1065247 32.1065247 0 0 1-45.40277123-45.40204704l196.51504755-196.51070237H223.09052301a32.10290373 32.10290373 0 0 1-32.10290373-32.10362793 32.10290373 32.10290373 0 0 1 32.10290373-32.10362791h224.71815347a32.10290373 32.10290373 0 0 1 32.10652471 32.10362791V672.91527056a32.1065247 32.1065247 0 0 1-32.1072489 32.10362792z"  horiz-adv-x="1025" />

    
    <glyph glyph-name="star" unicode="&#58890;" d="M512 178.56799999999998L303.453 68.88l39.797 232.313-168.75 164.39 233.156 33.891L512 710.8340000000001l104.344-211.36 233.156-33.89-168.75-164.391 39.797-232.313L512 178.56799999999998z"  horiz-adv-x="1024" />

    
    <glyph glyph-name="tell" unicode="&#58891;" d="M583.56373978 250.31758689000003l18.87159347 11.71923638c7.39877701 4.46954727 13.45653534 7.79737473 19.5652771 10.5273056 42.70711899 19.46640015 80.44721603 5.71168899 130.30591965-52.58863449 30.8387947-36.05300903 39.97564316-68.03352356 28.0578804-96.53789519-8.84021759-21.30334853-25.92275619-36.00202561-56.36449814-54.12740708-1.98526382-1.19270325-19.51583862-11.42183303-23.9853859-14.15330887-70.81289291-43.70052338-233.14876557 56.31351472-349.89772796 227.24086762C233.06966019 453.771595 202.77777862 636.5162887500001 274.53463745 680.86260224l9.43656922 5.95888137 10.32800673 6.70354842c36.25230789 23.48945617 59.49225426 32.87504197 87.05343248 28.2077408 27.51019477-4.71828461 50.90000153-25.07921219 70.615139-62.12408066 41.7137146-78.41251372 32.52588272-115.60724258-21.1550331-149.37526703-3.87319565-2.4827385-17.58001328-10.77604294-18.87004853-11.57014847-13.11046601-8.14498901 9.13684844-62.72043228 60.93137741-138.54978561C525.3638382 283.44059372000004 569.212677 241.47814178 583.56373978 250.41723633000004z"  horiz-adv-x="1024" />

    
    <glyph glyph-name="offline" unicode="&#58892;" d="M206.08313185 426.85839759c-6.6807121 0-13.35938741 2.02729739-19.08483915 6.32087699-14.31396883 10.49767994-17.41466112 30.77608534-6.79952558 45.08937524 37.81323787 51.29211768 87.67348342 93.874868 144.21240426 122.98009637 58.44944157 30.17862327 124.29247611 46.16209119 190.3751744 46.16209121 65.96320588 0 131.5672556-15.86397551 189.89652582-45.80361396 56.30197283-28.9864149 106.16153944-71.33153827 143.97409837-122.26449979 10.61581448-14.31396883 7.63393566-34.47356076-6.68071211-45.08869629-14.31328989-10.61581448-34.47152394-7.63461459-45.08801735 6.68003317-67.03524292 90.29552713-169.85778417 142.06357765-282.10189473 142.06357766-111.05258111 0-216.7361509-53.43822855-282.69935679-142.90002455-6.320877-8.70800949-16.10296034-13.24125286-26.00317821-13.24125285z m385.87833848-305.36285789c-8.23071878 0-16.46075862 3.10137124-22.78231457 9.42360611L416.49772682 283.59921688c-12.52497733 12.52497733-12.52497733 32.92287514 0 45.56666594 12.52497733 12.52497733 32.9221962 12.52497733 45.56530807 0l152.68142895-152.68075001c12.52497733-12.52429839 12.52497733-32.9221962-1e-8-45.565987-6.20206352-6.32223487-14.43346124-9.4236061-22.7829935-9.42360611zM439.28072033 121.4955397c-8.23071878 0-16.46143757 3.10137124-22.78299351 9.42360611-12.52497733 12.52497733-12.52497733 32.9221962 0 45.56530807l152.44244412 152.44312306c12.52497733 12.52429839 32.92287514 12.52429839 45.56530806 0 12.52497733-12.52429839 12.52497733-32.92151727 0-45.56598702L461.94422142 130.91914581000003c-6.20274246-6.32223487-14.43346124-9.4236061-22.66282216-9.42360611z m-121.78720907 229.26044931a32.45305269 32.45305269 0 0 0-19.56212987 6.56054076c-14.19515536 10.73530689-16.81923587 31.01371229-6.08325004 45.08869629 25.76487232 33.87677763 59.5214786 61.90725323 97.45285102 81.11226373 39.72172178 20.15823406 82.66294934 30.41625023 127.51333974 30.41625023s87.79161795-10.25801617 127.51266081-30.29743676c37.93137241-19.20433156 71.56916521-47.2354861 97.33403753-81.11226371 10.73394902-14.19447642 8.11122637-34.35203153-6.08325004-45.08801737-14.19515536-10.73530689-34.35406834-8.11122637-45.08937523 6.08325004-41.74901918 54.75128721-104.96865214 86.12143994-173.67407307 86.12143993-68.70745774 0-132.04590418-31.37083165-173.67543094-86.12143993-6.32155593-8.34953226-15.98346793-12.76396215-25.64605885-12.76396215z"  horiz-adv-x="1024" />

    
    <glyph glyph-name="myCart" unicode="&#58893;" d="M699.422 72.59000000000003c-7.314 0-14.122 1.45-20.784 4.346-6.735 2.97-12.24 6.663-17.309 11.732s-8.762 10.573-11.732 17.308c-2.896 6.735-4.345 13.543-4.345 20.785s1.449 14.122 4.345 20.784c2.97 6.735 6.663 12.239 11.732 17.308 5.142 5.142 10.501 8.69 16.802 11.153 7.097 2.752 14.266 4.2 21.291 4.2 7.17 0 14.701-1.448 21.654-4.2 6.662-2.607 12.31-6.228 17.163-11.153 5.07-5.069 8.763-10.573 11.732-17.308 2.897-6.735 4.345-13.542 4.345-20.784 0-7.315-1.448-14.122-4.345-20.785-2.97-6.735-6.663-12.239-11.732-17.308-4.78-4.78-10.573-8.618-17.67-11.732-6.518-2.897-13.833-4.345-21.147-4.345z m-307.277 1.45c-7.893 0-14.773 1.375-21.58 4.344-6.736 2.97-12.24 6.663-17.309 11.732s-8.763 10.574-11.732 17.309c-2.897 6.735-4.345 13.542-4.345 20.784 0 7.314 1.448 14.122 4.345 20.785 2.97 6.735 6.663 12.238 11.732 17.308 5.142 5.142 10.501 8.69 16.801 11.152 7.242 2.825 14.267 4.2 22.016 4.2 7.097 0 14.267-1.375 21.291-4.2 6.373-2.462 11.732-6.01 16.802-11.152 5.07-5.07 8.763-10.573 11.732-17.308 2.897-6.736 4.345-13.543 4.345-20.785 0-7.314-1.448-14.122-4.345-20.784-2.97-6.735-6.663-12.24-11.732-17.309s-10.573-8.762-17.308-11.732c-6.59-2.896-13.47-4.345-20.713-4.345z m363.91 156.57h-389.04c-7.024 0-12.455 1.376-16.728 4.2-4.78 3.187-8.98 7.605-12.384 13.036a80.08 80.08 0 0 0-9.125 19.77c-2.172 7.243-4.417 14.847-5.866 21.8-0.362 2.534-1.158 6.445-2.317 12.528-0.507 2.68-1.159 5.721-1.81 9.197-0.87 4.563-1.811 9.56-2.825 14.991a2567.12 2567.12 0 0 1-5.287 27.52 2227.92 2227.92 0 0 0-5.141 27.374 7349.16 7349.16 0 0 1-5.504 29.475c-2.028 10.5-3.983 21.146-5.866 31.502-1.883 10.356-3.91 21.075-5.939 31.648-9.197 49.68-19.843 104.719-31.792 166.275l-2.245 11.732h-67.35c-2.897 0-6.88 0.435-9.632 2.535-3.476 2.68-6.373 5.866-8.835 9.632-2.318 3.62-3.838 7.387-4.563 11.442-1.086 5.721-1.593 10.211-1.593 13.615 0 5.938 1.738 10.356 5.432 13.832 2.245 2.1 6.228 4.925 15.135 4.925h76.475c7.532 0 13.326-0.942 17.164-2.897 3.983-2.028 7.097-4.345 8.908-6.808 2.679-3.548 4.272-6.445 5.141-9.27 0.58-1.882 1.087-3.693 1.594-5.358 0.724-2.39 1.376-4.635 2.027-6.735 0.652-2.535 1.231-6.373 1.956-10.79 0.217-1.232 0.362-2.536 0.579-3.912 0.58-3.476 1.014-7.097 1.52-10.935 0.435-3.476 0.87-7.097 1.45-10.718l0.072-0.217c1.665-9.85 3.114-18.974 4.417-27.81v0.073c0.942-6.445 6.3-12.456 14.701-12.456h504.838c14.266 0 21.943-2.245 25.926-4.128 6.59-3.114 8.908-6.083 10.066-8.039 1.883-3.186 2.607-5.793 2.39-9.052-0.29-5.432-0.941-9.27-1.883-12.167-0.869-2.607-2.462-7.097-4.635-13.325-1.376-3.91-3.041-8.545-4.852-13.76-1.376-3.91-2.824-7.966-4.273-12.094-3.765-10.573-7.676-21.58-11.66-33.53-3.113-9.415-6.444-18.974-9.703-28.171a3420.02 3420.02 0 0 1-7.242-20.857c-4.273-12.456-8.039-22.885-11.08-31.358-0.87-2.462-1.739-4.78-2.463-6.807l-0.072-0.217-0.073-0.218c-6.662-20.712-14.194-29.981-19.336-34.182-6.88-5.504-15.57-8.256-26.722-8.256H353.039l14.846-95.521h385.417c8.111 0 14.05-1.376 17.236-4.056 0.942-0.796 3.766-3.186 3.766-11.732 0-7.314-1.52-13.035-4.707-17.96-2.1-3.259-9.415-3.766-13.543-3.766zM347.68 401.81l408.23-0.796 61.194 161.93-500.854 1.593 31.43-162.727z"  horiz-adv-x="1024" />

    
    <glyph glyph-name="user" unicode="&#58894;" d="M610.559375 337.6696875c39.121875 45.9815625 80.3709375 108.09375 80.3709375 174.650625 0 120.268125-80.034375 218.023125-178.4728125 218.023125-98.3428125 0-178.5703125-97.755-178.5703125-218.023125 0-66.556875 25.213125-111.1828125 75.590625-173.4909375 83.079375-122.6325-188.5678125-131.615625-229.6228125-219.0853125-12.1715625-25.9846875-14.29875-46.126875-14.1075-69.35625 0-2.99625-0.2859375-6.0853125 1.2103125-8.548125 1.49625-2.41875 3.815625-3.9140625 6.3290625-3.9140625H850.6625c2.415 0 4.78125 1.49625 6.2296875 3.9140625 1.49625 2.4628125 1.2075 5.5040625 1.2075 8.548125 0.485625 25.98375-2.994375 49.265625-9.8053125 63.51375-43.614375 91.4278125-357.2353125 84.5709375-237.7359375 223.768125z"  horiz-adv-x="1025" />

    
    <glyph glyph-name="search" unicode="&#58895;" d="M445.53687834 155.67465184000002a294.76788147 294.76788147 0 1 0 0 589.57910687 294.76788147 294.76788147 0 0 0 0-589.57910687z m0 65.49915765a229.26872383 229.26872383 0 1 1 0 458.57970794 229.26872383 229.26872383 0 0 1 0-458.57862432zM642.11778838 302.3677989l231.57136931-231.61254602-46.28913438-46.3303111-231.61254605 231.61254602z"  horiz-adv-x="1024" />

    
    <glyph glyph-name="yzm" unicode="&#58896;" d="M199.147 735.23498218v-452.30600001l312.775-242.922 312.775 242.922V735.23498218h-625.55z m562.995-62.38v-359.51800001l-250.22-194.268-250.22 194.268V672.85498218h500.44z m-71.73-178.282l-44.223 44.13499999-134.267-133.97099999-71.712 71.58999998-44.224-44.13499999 115.935-115.72699999z"  horiz-adv-x="1024" />

    
    <glyph glyph-name="wx" unicode="&#58897;" d="M504.77777775 500.36462587c17.69795919 0 29.52108843 11.8521542 29.52108844 29.50294782 0 17.85034013-11.80408164 29.3968254-29.52108844 29.39682539-17.72607709 0-35.5011338-11.54648525-35.50113378-29.39682539 0.01995464-17.65986395 17.80317459-29.50294786 35.50113378-29.50294782z m0 0zM339.64308388 559.26530612c-17.69795919 0-35.58639455-11.54648525-35.58639455-29.39682539 0-17.65079365 17.8893424-29.50294786 35.58639454-29.50294784 17.63083901 0 29.43582767 11.8521542 29.43582767 29.50294784-0.00907028 17.85034013-11.79501134 29.3968254-29.43582767 29.39682539z m-1e-8 0z m518.06439911-247.77777777c0 93.32879819-86.57596372 172.85351474-192.84716555 181.12834467 0.14421769 1.15736963 0.21133786 2.36371882-0.04716554 3.56825396-21.3043084 99.34693878-128.14058957 174.24943311-248.52426303 174.24943312-136.03265305 0-246.71473923-94.85986394-246.71473923-211.45306123 0-62.554195 31.93197279-118.91972789 92.44897959-163.36507937L240.92925167 232.20136055a10.80453514 10.80453514 0 0 1 3.15646259-11.52653062 10.81451248 10.81451248 0 0 1 7.06031747-2.62131519c1.63628118 0 3.29070295 0.38276644 4.81179137 1.13832199l79.19909298 39.63265306 9.75782313-1.98095237c24.38458051-5.0122449 45.43945578-9.35510205 71.37414965-9.35510205 7.63446712 0 28.64217688 2.79365079 30.41179137 5.03219955 28.55510205-71.46031747 107.26712018-123.04308391 199.87936511-123.0430839 23.72426304 0 47.7351474 5.7197279 69.28798185 11.11655329l61.05306123-33.37687074c1.61632654-0.8798186 3.39591836-1.33877552 5.15646257-1.33877551 2.41088436 0 4.82086167 0.81360544 6.75374149 2.39183672 3.39591836 2.75464852 4.79274377 7.28979592 3.52925171 11.44126985l-15.59274376 51.8494331c52.27029479 41.30793651 80.94058957 90.72743765 80.94058957 139.92743766z m-420.99501135-35.21360546a237.06394558 237.06394558 0 0 0-20.37641724-0.87074829c-22.90158728 0-42.27301587 3.96009071-64.677551 8.58956917l-13.01950116 2.63038548a9.99546486 9.99546486 0 0 1-6.65850339-0.8888889l-57.23446712-28.65124716 14.87528345 44.68480726a10.38185942 10.38185942 0 0 1-3.90294786 11.78594104c-57.50294785 40.08253971-86.64217687 88.90975056-86.64217688 145.10113379 0 101.02040816 97.45215419 183.2335601 217.2517007 183.23356008 105.8984127 0 199.65804989-64.42902494 219.01043083-150.12335599-111.0367347-1.45487528-200.88344671-79.51564626-200.88344671-175.38956918 0-13.93741496 2.11519273-27.44489797 5.68253969-40.4743764-1.07936507 0.2675737-2.21950114 0.47800454-3.42403628 0.37188208z m315.69795919-86.14512469a10.23854874 10.23854874 0 0 1-3.63446713-11.10748301l9.67165532-32.16235829-39.6897959 21.71609979a10.21315193 10.21315193 0 0 1-4.90702948 1.26258503c-0.83356009 0-1.67437642-0.10430839-2.49795919-0.32471655-21.28526078-5.37687076-43.31609977-10.92517008-64.76371882-10.92517007-99.6244898 0-180.67029479 68.46621315-180.67029478 152.61133786S546.95555553 463.78231292 646.58911562 463.78231292c97.71972789 0 180.29659864-69.87301587 180.29659865-152.58321996 0-41.94920635-26.44172335-84.95873016-74.4734694-121.07210883z m5.47210883-5.9410431zM581.50793648 388.19954648c-11.80408164 0-23.60997732-11.89115647-23.60997732-23.67619047 0-11.87301588 11.80589569-23.5909297 23.60997732-23.59092971 17.73605442 0 29.45487528 11.71882087 29.45487529 23.5909297 0 11.80408164-11.71882087 23.67619047-29.45487529 23.67619048z m0-1e-8z m129.71065761 0c-11.63356008 0-23.43764172-11.89115647-23.43764173-23.67619046 0-11.87301588 11.80408164-23.5909297 23.43764172-23.59092971 17.67800453 0 29.60725624 11.71882087 29.60725624 23.5909297 0 11.80408164-11.90929704 23.67619047-29.60725624 23.67619048z m-1e-8 0z"  horiz-adv-x="1024" />

    
    <glyph glyph-name="right" unicode="&#58898;" d="M821.268 665.242c-198.14-121.557-341.857-275.05-406.709-351.96L256.178 437.446l-70.066-56.379 273.42-278.309c46.928 120.579 196.185 356.196 378.356 523.703l-16.62 38.78m0 0z"  horiz-adv-x="1024" />

    
    <glyph glyph-name="warr" unicode="&#58899;" d="M519.06 64.83699999999999c-42.366 0-77.671 33.893-77.671 76.261 0 42.367 35.305 76.26 77.672 76.26s77.672-33.893 77.672-76.26c0-42.368-33.893-76.26-77.672-76.26z m0 196.3c-26.831 0-43.778 35.304-43.778 74.847l-33.893 296.567c0 42.368 35.305 76.26 77.672 76.26s77.672-33.893 77.672-77.672L562.84 337.39700000000005c1.413-40.954-16.947-76.26-43.78-76.26z"  horiz-adv-x="1024" />

    
    <glyph glyph-name="password" unicode="&#58900;" d="M777.323 441.44l29.043-45.189c4.553-7.084 1.98-16.21-5.749-20.384-7.728-4.173-17.684-1.814-22.237 5.27l-28.183 43.85c-31.455-17.825-63.19-31.513-95.063-41.372l22.424-49.546c3.437-7.594-0.493-16.305-8.778-19.455-8.284-3.15-17.787 0.451-21.224 8.045l-23.192 51.243a14.284 14.284 0 0 0-0.502 1.266c-31.824-7.362-63.74-11.026-95.614-11.297v-55.58c0-8.223-7.27-14.888-16.24-14.888-8.97 0-16.241 6.665-16.241 14.887v55.44c0 0.346 0.013 0.688 0.037 1.027-31.783 1.995-63.476 7.271-94.942 15.524a13.74 13.74 0 0 0-1.227-6.379l-23.192-51.243c-3.437-7.594-12.94-11.196-21.224-8.045-8.285 3.15-12.214 11.86-8.778 19.455l23.192 51.243a14.664 14.664 0 0 0 2.185 3.445c-28.666 9.21-57.106 20.836-85.216 34.645a633.794 633.794 0 0 0-10.431 5.245l-30.536-47.51c-4.553-7.084-14.509-9.443-22.237-5.27-7.728 4.173-10.302 13.3-5.748 20.384l30.629 47.655a578.13 578.13 0 0 0-31.08 19.39c-7.15 4.786-13.437 9.245-18.819 13.264-3.29 2.458-5.584 4.256-6.84 5.282-6.692 5.474-7.276 14.885-1.304 21.02 5.972 6.135 16.238 6.67 22.93 1.196 3.932-3.216 11.787-9.083 23.192-16.72 19.17-12.834 41.16-25.691 65.588-37.692 165.133-81.126 339.716-81.93 504.35 50.717 2.254 1.822 2.254 1.822 4.509 3.67 6.677 5.49 16.946 4.978 22.934-1.143 5.99-6.122 5.43-15.533-1.247-21.023-2.376-1.946-2.376-1.946-4.752-3.868-16.698-13.453-33.511-25.624-50.417-36.56z"  horiz-adv-x="1024" />

    
    <glyph glyph-name="pwd" unicode="&#58901;" d="M785.17561098 444.78578987h-53.35147393l0.16054422 157.18367346c0 93.52380952-97.13832199 169.29886621-217.22993197 169.29886622-119.93469388 0-217.22993198-75.77505669-217.22993197-169.29886622l-1.01043084-157.18367346h-54.5197279c-30.02267574 0-53.13741497-24.20408164-53.13741496-47.61088435l-1.17006803-340.11247166c0-23.37959183 25.45396825-47.61088436 55.47664399-47.61088436h543.28798186c29.91746032 0 53.03038548 24.23129252 53.0303855 47.61088436l1.16916099 340.11247166c0 23.40589569-25.55827664 47.61088436-55.47664399 47.61088435z m-162.92335601 0H405.34159738V608.0266061899999c0 46.65578232 49.63083901 78.61768708 109.41315192 78.61768708 59.83310658 0 108.24126984-31.96099773 108.24126984-78.61768708l-0.74376417-163.24081632z"  horiz-adv-x="1024" />

    
    <glyph glyph-name="add" unicode="&#58902;" d="M794.76467025 422.4222418h-243.65589022V666.07233847c0 23.40820133-15.65712691 42.37563014-34.95478929 42.37563013h-7.78004229c-19.31142211 0-34.95406508-18.96670461-34.95406508-42.37563013v-243.65009667h-243.66313218c-23.40168356 0-42.37490594-15.65567851-42.37490596-34.96058283v-7.77352454c0-19.30490435 18.97394658-34.96058286 42.37490596-34.96058285H473.40757203v-243.65009665c0-23.40820133 15.65567851-42.37490594 34.96710062-42.37490595h7.76628256c19.31142211 0 34.96782481 18.96670461 34.96782482 42.37490595V344.72827578h243.65661442c23.3944416 0 42.37563014 15.65567851 42.37563013 34.96058284v7.77352454c0 19.30418015-18.98046434 34.95985866-42.37563013 34.95985864z"  horiz-adv-x="1024" />

    
    <glyph glyph-name="scan" unicode="&#58903;" d="M760.76147508 72.16554172999997H674.87630424v29.60152925h85.88517085c22.47272061 0 40.7360494 18.26332882 40.73604941 40.73604941V228.32039782000004H831.09905374v-85.88517084c0-38.76714036-31.57043829-70.26968524-70.33757865-70.26968525zM831.09905374 556.2455956h-29.60152924V642.13076645c0 22.47272061-18.26332882 40.7360494-40.73604941 40.73604942H674.87630424V712.46834511h85.88517085c38.76714036 0 70.33757865-31.57043829 70.33757865-70.33757865v-85.88517087zM220.32988619 556.2455956H190.79625037V642.13076645c0 38.76714036 31.57043829 70.33757865 70.33757867 70.33757866h86.22463791v-29.60152924h-86.22463791c-22.47272061 0-40.7360494-18.26332882-40.73604942-40.73604942l-0.06789343-85.88517086zM347.29057354 72.16554172999997h-86.22463793c-38.76714036 0-70.33757865 31.57043829-70.33757865 70.33757866V228.32039782000004h29.60152923v-85.88517084c0-22.47272061 18.26332882-40.7360494 40.73604942-40.73604942h86.22463793v-29.53363583zM222.57036892 407.15165475h576.68667285v-29.60152925H222.57036892v29.60152924z"  horiz-adv-x="1024" />

    
    <glyph glyph-name="switch" unicode="&#58904;" d="M1069.707 252.164h-858.91a38.76 38.76 0 0 1-27.884-11.536 39.353 39.353 0 0 1-5.8-48.12 39.57 39.57 0 0 1 8.833-10.48l180.813-181.736a38.892 38.892 0 0 1 55.173 0 39.353 39.353 0 0 1 0 55.37l-116.675 117.4h764.45a39.287 39.287 0 0 1 39.024 39.551c0 21.885-17.468 39.55-39.023 39.55z m-858.91 263.474h858.912a38.76 38.76 0 0 1 8.173 0.857 39.353 39.353 0 0 1 20.765 66.313L914.8 767.708a38.892 38.892 0 0 1-55.173 0 39.353 39.353 0 0 1 0-55.37L976.5 594.74H210.796a39.287 39.287 0 0 1-39.088-39.55c0-21.754 17.468-39.552 39.088-39.552z"  horiz-adv-x="1280" />

    


  </font>
</defs>
</svg>
