<?xml version="1.0" standalone="no"?><!DOCTYPE svg PUBLIC "-//W3C//DTD SVG 1.1//EN" "http://www.w3.org/Graphics/SVG/1.1/DTD/svg11.dtd"><svg t="1553571184634" class="icon" style="" viewBox="0 0 1244 1024" version="1.1" xmlns="http://www.w3.org/2000/svg" p-id="1648" xmlns:xlink="http://www.w3.org/1999/xlink" width="242.96875" height="200"><defs><style type="text/css"></style></defs><path d="M1192.665667 125.478885c-91.771638-129.65029-244.602493-163.39739-363.064686-79.669482l-83.362285 58.975161a72.759187 72.759187 0 0 0-17.18433 100.619739 71.333253 71.333253 0 0 0 99.815367 18.281203l83.362284-58.97516c61.424841-43.289888 126.871547-9.067477 164.530825 44.240511a129.906227 129.906227 0 0 1 22.303067 96.561313 124.531553 124.531553 0 0 1-51.918616 83.106347l-263.249319 185.73702c-120.290314 85.044155-160.874584 27.641179-178.424539 3.071242a71.004191 71.004191 0 0 0-99.449743-17.623079 72.466688 72.466688 0 0 0-16.453082 100.765989 229.575344 229.575344 0 0 0 146.98087 99.815367 308.440453 308.440453 0 0 0 229.97753-67.092014l263.24932-185.700457a267.453996 267.453996 0 0 0 110.418464-176.852356 277.179596 277.179596 0 0 0-47.531127-205.188219z m-677.866998 727.591869a71.662315 71.662315 0 0 0-99.815367-18.281202L348.0741 882.137867a131.222473 131.222473 0 0 1-203.652598-129.211541 125.884362 125.884362 0 0 1 51.918615-83.14291l246.796238-174.110175c51.187368-36.160219 144.421502-85.921653 194.877621-14.917462a71.223566 71.223566 0 0 0 99.815367 17.732767 72.320438 72.320438 0 0 0 16.087458-100.692865c-85.556029-121.094687-239.84938-129.394353-393.411483-21.169633l-246.796237 174.146738A266.90556 266.90556 0 0 0 3.656241 727.515454c-12.065594 72.247313 9.140601 119.120317 51.918615 179.155787a275.7171 275.7171 0 0 0 176.962043 112.795021 266.174312 266.174312 0 0 0 202.555726-44.569573l67.274826-47.311752a44.606135 44.606135 0 0 0 12.431218-74.696995z" fill="#A9B6C1" p-id="1649"></path></svg>