<?xml version="1.0" standalone="no"?><!DOCTYPE svg PUBLIC "-//W3C//DTD SVG 1.1//EN" "http://www.w3.org/Graphics/SVG/1.1/DTD/svg11.dtd"><svg t="1553571167337" class="icon" style="" viewBox="0 0 1024 1024" version="1.1" xmlns="http://www.w3.org/2000/svg" p-id="1538" xmlns:xlink="http://www.w3.org/1999/xlink" width="200" height="200"><defs><style type="text/css"></style></defs><path d="M787.455541 1023.998976H260.09642a153.394944 153.394944 0 0 1-153.941077-152.678146V378.470452a60.245233 60.245233 0 0 1 120.490466 0v492.850378a33.826077 33.826077 0 0 0 33.450611 33.211678h527.359121a33.826077 33.826077 0 0 0 33.450611-33.211678V378.470452a60.074567 60.074567 0 0 1 120.149133 0v492.850378A153.326678 153.326678 0 0 1 787.455541 1023.998976zM730.452969 326.178272a60.0063 60.0063 0 0 1-60.415899-59.733233V119.46715h-292.863512v146.977889a60.245233 60.245233 0 0 1-120.490466 0V113.459694A114.27821 114.27821 0 0 1 371.370901 0.000683h304.810159a113.97101 113.97101 0 0 1 114.346476 113.459011v152.985345a59.938033 59.938033 0 0 1-60.074567 59.733233z m-335.530107 480.562399a60.040433 60.040433 0 0 1-60.4159-59.733233v-228.45402a60.245233 60.245233 0 0 1 120.490466 0v228.45402a59.972167 59.972167 0 0 1-60.074566 59.733233z m245.076925 0a59.972167 59.972167 0 0 1-60.074567-59.733233v-228.45402a60.245233 60.245233 0 0 1 120.490466 0v228.45402a60.040433 60.040433 0 0 1-60.415899 59.733233z m323.924793-432.02488H60.07542a59.733234 59.733234 0 1 1 0-119.466467h903.84916a59.733234 59.733234 0 1 1 0 119.466467z" fill="#A9B6C1" p-id="1539"></path></svg>