<?xml version="1.0" standalone="no"?><!DOCTYPE svg PUBLIC "-//W3C//DTD SVG 1.1//EN" "http://www.w3.org/Graphics/SVG/1.1/DTD/svg11.dtd"><svg t="1591844377087" class="icon" viewBox="0 0 1024 924" version="1.1" xmlns="http://www.w3.org/2000/svg" p-id="1996" xmlns:xlink="http://www.w3.org/1999/xlink" width="128" height="128"><defs><style type="text/css"></style></defs><path d="M771.072 377.856L665.6 378.88l19.456-88.064h-90.112l-18.432 87.04H470.016l-18.432 91.136h106.496l-18.432 87.04h88.064l18.432-87.04h104.448z" fill="#FFAE00" p-id="1997"></path><path d="M165.888 675.84c-37.888-97.28 67.584-193.536 67.584-193.536l27.648 180.224h101.376l11.264-79.872 11.264 79.872H486.4l31.744-161.792H430.08l-22.528-157.696h-67.584L317.44 501.76l-32.768-158.72s-84.992 27.648-139.264 81.92C61.44 510.976 19.456 604.16 49.152 684.032c50.176 137.216 286.72 176.128 527.36 87.04 79.872-29.696 149.504-51.2 205.824-96.256-44.032 29.696-96.256 39.936-153.6 61.44-207.872 75.776-419.84 50.176-462.848-60.416z" p-id="1998"></path><path d="M979.968 337.92c-50.176-137.216-286.72-176.128-527.36-87.04-79.872 29.696-149.504 51.2-205.824 96.256 44.032-29.696 96.256-39.936 153.6-61.44 208.896-77.824 425.984-52.224 464.896 60.416C912.384 481.28 755.712 546.816 755.712 546.816l11.264-49.152h-87.04l-35.84 162.816h75.776s100.352 2.048 144.384-31.744C971.776 548.864 1013.76 430.08 979.968 337.92z" p-id="1999"></path></svg>