<?xml version="1.0" standalone="no"?><!DOCTYPE svg PUBLIC "-//W3C//DTD SVG 1.1//EN" "http://www.w3.org/Graphics/SVG/1.1/DTD/svg11.dtd"><svg t="1552976074526" class="icon" style="" viewBox="0 0 1049 1024" version="1.1" xmlns="http://www.w3.org/2000/svg" p-id="1389" xmlns:xlink="http://www.w3.org/1999/xlink" width="204.8828125" height="200"><defs><style type="text/css"></style></defs><path d="M524.46731 1023.96748a511.98374 511.98374 0 1 1 524.519762-511.826384 518.828723 518.828723 0 0 1-524.519762 511.826384z m0-927.823008A416.127753 416.127753 0 1 0 950.692069 512.141096 421.713889 421.713889 0 0 0 524.46731 96.144472z m129.084314 698.398064a75.557072 75.557072 0 0 1-7.579311-0.39339 108.129749 108.129749 0 0 1-26.566926-6.661401 231.759057 231.759057 0 0 1-22.42322-10.018327 1169.338132 1169.338132 0 0 1-116.259805-73.432767c-117.492427-96.275602-142.039952-169.078945-179.96273-276.317011-3.671638-14.214486-7.159695-26.881638-10.097006-38.316169a410.646522 410.646522 0 0 1-5.245197-22.475671 146.865533 146.865533 0 0 1-3.015989-23.367356c-1.468655-38.499751 19.695717-63.965185 96.61654-109.860664a28.324067 28.324067 0 0 1 14.109582-3.828994 58.588857 58.588857 0 0 1 40.833863 26.907864 192.157815 192.157815 0 0 1 11.250949 15.735592c3.409378 5.245198 6.687627 10.490395 9.834746 16.155209a654.836697 654.836697 0 0 1 32.834937 68.790767c17.230474 40.72896-99.422721 63.493117-99.422721 63.493117a402.752499 402.752499 0 0 0 194.67551 252.084198c20.403819-53.710824 55.599095-86.388405 74.350676-86.388405h0.576972a225.543498 225.543498 0 0 1 79.6221 66.561558c4.327288 5.245198 8.36609 10.700203 11.95905 16.102757a138.394539 138.394539 0 0 1 10.306813 17.859897 43.194202 43.194202 0 0 1 2.622599 40.886316c-49.750699 41.856677-75.24236 66.48288-109.021432 66.48288z" fill="#5A8BFF" p-id="1390"></path></svg>