<?xml version="1.0" standalone="no"?><!DOCTYPE svg PUBLIC "-//W3C//DTD SVG 1.1//EN" "http://www.w3.org/Graphics/SVG/1.1/DTD/svg11.dtd"><svg t="1555388827283" class="icon" style="" viewBox="0 0 1025 1024" version="1.1" xmlns="http://www.w3.org/2000/svg" p-id="874" xmlns:xlink="http://www.w3.org/1999/xlink" width="200.1953125" height="200"><defs><style type="text/css"></style></defs><path d="M639.588 571.976c50.646-59.524 104.044-139.932 104.044-226.091 0-155.692-103.608-282.24-231.04-282.24-127.308 0-231.166 126.548-231.166 282.24 0 86.16 32.64 143.93 97.855 224.59C486.83 729.228 135.173 740.856 82.025 854.09c-15.756 33.637-18.51 59.713-18.262 89.784 0 3.879-0.37 7.878 1.567 11.066 1.937 3.13 4.939 5.067 8.193 5.067h876.888c3.127 0 6.19-1.938 8.065-5.067 1.937-3.188 1.563-7.126 1.563-11.066 0.629-33.637-3.876-63.776-12.693-82.221-56.46-118.357-462.455-109.48-307.758-289.677z" p-id="875"></path></svg>